<?xml version="1.0" encoding="UTF-8"?>
<svg width="752pt" height="752pt" version="1.1" viewBox="0 0 752 752" xmlns="http://www.w3.org/2000/svg">
 <defs>
  <clipPath id="a">
   <path d="m139.21 172h473.58v408h-473.58z"/>
  </clipPath>
 </defs>
 <g clip-path="url(#a)">
  <path d="m181.7 524.37c-62.055 96.711 234.47 37.156 274.68 36.266 22.621-0.50391 53.352-52.727 156.41-94.57-52.738 7.6797-101.62 20.574-153.34 30.184-11.383 2.1133-22.672 3.7969-32.672 5.1172-0.25781-6.1797-1.4961-15.402 4.9727-19.391 11.328-6.9922 63.258-19.375 93.617-0.99219 2.5117-107.25-65.348-88.191-108.84-229.61v90.492c-7.668-0.72266-42.363-22.133-42.352-22.164 30-64.281 37.781-147.28-53.801-147.28v79.121c-11.848 36.387-61.875 65.344-84.543 72.469 28.461 23.301 63.941 44.906 64.703 80.594 0.44141 20.535 3.8125 42.336-49.191 80.5-55.16-61.039-107.17-20.008-112.01-23.379-2.9531-2.0547 51.012 49.168 42.371 62.641zm147.28-347.05c14.852 15.531 11.824 37.625 0 60.027zm-8.6016 99.523c-38.449 36.676-38.094 30.664-60.141 46.281 20.375-0.050781 39.801-0.37891 60.176-0.59375 0-15.668-0.035156-31.414-0.035156-45.688zm94.215 245.12h53.922v6.9766h-53.922zm0-10.785h53.922v6.9766h-53.922zm-242.97-28.551h53.922v6.9805h-53.922zm0-10.785h53.922v6.9805h-53.922zm157.36-199.24v49.844c11.793-0.10938 23.148-0.17578 32.508-0.12891-2.4375-3.2461 51.086-87.695-32.508-49.715zm0 209v10.539c12.285-11.465 21.027-14.742 0-10.539zm0 15.695v25.848c12.023 0.94922 25.262 1.1172 36.508 1.0312 5.1797-99.512-7.7539-24.496-36.508-26.879zm-7.6133 25.121v-39.191c-18.059 4-36.551 5.832-54.402 10.145 17.805 20.637-7.1406 22.066 54.402 29.051zm95.16-19.77v-82.977c-42.492 26.48-38.25 61.559-39.195 104.33 10.926-0.23047 19.531 3.7227 19.531-6.8281 0-0.52734-36.898-7.7695 19.664-14.527z" fill-rule="evenodd"/>
 </g>
</svg>
